<svg xmlns="http://www.w3.org/2000/svg" xmlns:xlink="http://www.w3.org/1999/xlink" width="22" height="22" viewBox="0 0 22 22">
  <defs>
    <clipPath id="clip-path">
      <rect id="ypwodexz5" width="22" height="22" transform="translate(280 774)" fill="#fff"/>
    </clipPath>
  </defs>
  <g id="ypwodexz6" transform="translate(-280 -774)" clip-path="url(#clip-path)">
    <g id="ypwodexz" transform="translate(283.148 776.022)">
      <path id="ypwodexz2" d="M323.568,127.91a5.375,5.375,0,1,0-5.258-5.374A5.323,5.323,0,0,0,323.568,127.91Zm0-9.806a4.433,4.433,0,1,1-4.336,4.432A4.39,4.39,0,0,1,323.568,118.1Z" transform="translate(-315.552 -117.163)" fill="#fff" stroke="#fff" stroke-width="0.5"/>
      <path id="ypwodexz1" d="M209.185,554.192c-.192-1.162-2-2.4-2.869-3.059a.68.68,0,0,0-.714-.021,9.621,9.621,0,0,1-4.309,1.4,7.464,7.464,0,0,1-4.215-1.351.55.55,0,0,0-.8,0,11.951,11.951,0,0,0-2.638,2.768,3.789,3.789,0,0,0-.017,3.132,2.167,2.167,0,0,0,1.258,1.375,22.255,22.255,0,0,0,3.717.126c3.61,0,8.652-.111,8.7-.112l.043,0a2.162,2.162,0,0,0,1.35-.88,4.413,4.413,0,0,0,.488-3.372Zm-1.121,2.87a1.389,1.389,0,0,1-.806.571c-.417.009-5.2.111-8.656.111a25.8,25.8,0,0,1-3.513-.1c-.181-.048-.477-.312-.719-.9a2.976,2.976,0,0,1-.03-2.409,10.406,10.406,0,0,1,2.339-2.448,8.42,8.42,0,0,0,4.614,1.44,9.674,9.674,0,0,0,4.666-1.446c1.445,1.122,2.328,1.811,2.432,2.444a3.75,3.75,0,0,1-.327,2.735Z" transform="translate(-193.293 -540.684)" fill="#fff" stroke="#fff" stroke-width="0.5"/>
    </g>
  </g>
</svg>
