<svg xmlns="http://www.w3.org/2000/svg" width="20.454" height="29.096" viewBox="0 0 20.454 29.096">
  <g id="组_1" data-name="组 1" transform="translate(-268.168 -223)">
    <g id="组_183" data-name="组 183" transform="translate(3 -14)">
      <path id="收益管理" d="M2.074,11.24H1.264A1.429,1.429,0,0,0,0,12.779V28.1H3.278V12.705A1.359,1.359,0,0,0,2.074,11.24Zm8.083-4.214H9.351a1.347,1.347,0,0,0-1.264,1.4V28.1h3.273V8.363A1.208,1.208,0,0,0,10.157,7.026ZM18.244,0h-.805a1.319,1.319,0,0,0-1.264,1.357V28.1h3.273V1.294A1.181,1.181,0,0,0,18.244,0Z" transform="translate(265.668 237.499)" fill="#3c3c3c" stroke="#fff" stroke-width="1"/>
      <path id="收益管理-2" data-name="收益管理" d="M18.244,0h-.805a1.319,1.319,0,0,0-1.264,1.357V28.1h3.273V1.294A1.181,1.181,0,0,0,18.244,0Z" transform="translate(265.668 237.499)" fill="#fb3f4e" stroke="#fff" stroke-width="1"/>
    </g>
  </g>
</svg>
