<svg id="用户管理" xmlns="http://www.w3.org/2000/svg" width="24" height="27.619" viewBox="0 0 24 27.619">
  <path id="路径_1" data-name="路径 1" d="M542.548,620.171l.034-.022a.872.872,0,0,0,.3-1.055,1.381,1.381,0,0,1-.105-.461,1.208,1.208,0,0,1,1.206-1.206h.056a.749.749,0,0,0,.69-.693,5.322,5.322,0,0,0,0-2.239.75.75,0,0,0-.7-.693h-.049a1.208,1.208,0,0,1-1.206-1.206,1.385,1.385,0,0,1,.105-.455.886.886,0,0,0-.328-1.079l-1.41-.776a.912.912,0,0,0-.356-.071.949.949,0,0,0-.674.278,1.822,1.822,0,0,1-.962.554,1.842,1.842,0,0,1-.968-.563.956.956,0,0,0-.68-.285.909.909,0,0,0-.346.068l-.028.009-1.435.789-.034.022a.872.872,0,0,0-.3,1.055,1.357,1.357,0,0,1,.108.461,1.208,1.208,0,0,1-1.206,1.206h-.056a.749.749,0,0,0-.69.7,7.14,7.14,0,0,0-.118,1.12,7.611,7.611,0,0,0,.118,1.12.75.75,0,0,0,.7.693h.046a1.208,1.208,0,0,1,1.206,1.206,1.383,1.383,0,0,1-.105.455.89.89,0,0,0,.325,1.079l1.382.77a.913.913,0,0,0,.356.071.932.932,0,0,0,.68-.291,1.858,1.858,0,0,1,.984-.591,1.829,1.829,0,0,1,.99.6.93.93,0,0,0,1.07.207l1.4-.776Zm-3.458-1.132a2.189,2.189,0,0,0-1.274.489,4.035,4.035,0,0,0-.411.349l-.965-.538a2.343,2.343,0,0,0,.124-.7,2.3,2.3,0,0,0-2-2.282,5.555,5.555,0,0,1-.071-.736,5.032,5.032,0,0,1,.071-.736,2.3,2.3,0,0,0,2-2.283,2.329,2.329,0,0,0-.121-.7l1.042-.572a3.649,3.649,0,0,0,.414.34,1.906,1.906,0,0,0,2.5.009,3.878,3.878,0,0,0,.411-.334l1,.554a2.345,2.345,0,0,0-.124.7,2.3,2.3,0,0,0,2,2.283,3.845,3.845,0,0,1,0,1.472,2.3,2.3,0,0,0-2,2.279,2.329,2.329,0,0,0,.121.7l-1.008.557a3.834,3.834,0,0,0-.414-.356A2.2,2.2,0,0,0,539.091,619.039Z" transform="translate(-520.846 -593.415)" fill="#fb3f4e"/>
  <path id="路径_2" data-name="路径 2" d="M144.68,85.919a2.128,2.128,0,1,0-2.128,2.119A2.127,2.127,0,0,0,144.68,85.919Zm-2.128,1.029a1.029,1.029,0,1,1,1.033-1.029A1.033,1.033,0,0,1,142.553,86.947Zm1.172-15.287a7.976,7.976,0,0,0-7.986-7.958v0a7.976,7.976,0,0,0-7.995,7.964,7.915,7.915,0,0,0,4.095,6.907A11.452,11.452,0,0,0,124.2,89.236v.16c.006.283.062.551.087.835h.019a.868.868,0,0,0,1.726,0h.028c-.025-.3-.09-.585-.09-.887a9.741,9.741,0,0,1,9.767-9.728l.888-.089A7.936,7.936,0,0,0,143.725,71.661Zm-7.989,6.193a6.19,6.19,0,1,1,6.216-6.19A6.2,6.2,0,0,1,135.736,77.854Z" transform="translate(-124.2 -63.7)" fill="#3c3c3c"/>
  <path id="路径_3" data-name="路径 3" d="M144.68,85.919a2.128,2.128,0,1,0-2.128,2.119A2.127,2.127,0,0,0,144.68,85.919Zm-2.128,1.029a1.029,1.029,0,1,1,1.033-1.029A1.033,1.033,0,0,1,142.553,86.947Z" transform="translate(-124.2 -63.7)" fill="#fb3f4e"/>
</svg>
